<svg width="48" height="48" viewBox="0 0 48 48" fill="none" xmlns="http://www.w3.org/2000/svg">
<path fill-rule="evenodd" clip-rule="evenodd" d="M4.93934 19.9393C5.52513 19.3536 6.47487 19.3536 7.06066 19.9393L24 36.8787L40.9393 19.9393C41.5251 19.3536 42.4749 19.3536 43.0607 19.9393C43.6464 20.5251 43.6464 21.4749 43.0607 22.0607L25.0607 40.0607C24.4749 40.6464 23.5251 40.6464 22.9393 40.0607L4.93934 22.0607C4.35355 21.4749 4.35355 20.5251 4.93934 19.9393Z" fill="#3F3E3E"/>
<path fill-rule="evenodd" clip-rule="evenodd" d="M4.93934 7.93934C5.52513 7.35355 6.47487 7.35355 7.06066 7.93934L24 24.8787L40.9393 7.93934C41.5251 7.35355 42.4749 7.35355 43.0607 7.93934C43.6464 8.52513 43.6464 9.47487 43.0607 10.0607L25.0607 28.0607C24.4749 28.6464 23.5251 28.6464 22.9393 28.0607L4.93934 10.0607C4.35355 9.47487 4.35355 8.52513 4.93934 7.93934Z" fill="#3F3E3E"/>
</svg>
