<?xml version="1.0" encoding="utf-8"?>
<!-- Generator: Adobe Illustrator 24.3.0, SVG Export Plug-In . SVG Version: 6.00 Build 0)  -->
<svg version="1.1" id="Layer_1" xmlns="http://www.w3.org/2000/svg" xmlns:xlink="http://www.w3.org/1999/xlink" x="0px" y="0px"
	 viewBox="0 0 48 48" style="enable-background:new 0 0 48 48;" xml:space="preserve">
<style type="text/css">
	.st0{fill-rule:evenodd;clip-rule:evenodd;fill:#E5E5E5;}
</style>
<path class="st0" d="M4.9,19.9c0.6-0.6,1.5-0.6,2.1,0L24,36.9l16.9-16.9c0.6-0.6,1.5-0.6,2.1,0c0.6,0.6,0.6,1.5,0,2.1l-18,18
	c-0.6,0.6-1.5,0.6-2.1,0l-18-18C4.4,21.5,4.4,20.5,4.9,19.9z"/>
<path class="st0" d="M4.9,7.9c0.6-0.6,1.5-0.6,2.1,0L24,24.9L40.9,7.9c0.6-0.6,1.5-0.6,2.1,0c0.6,0.6,0.6,1.5,0,2.1l-18,18
	c-0.6,0.6-1.5,0.6-2.1,0l-18-18C4.4,9.5,4.4,8.5,4.9,7.9z"/>
</svg>
