<?xml version="1.0" encoding="utf-8"?>
<!-- Generator: Adobe Illustrator 24.3.0, SVG Export Plug-In . SVG Version: 6.00 Build 0)  -->
<svg version="1.1" id="Layer_1" xmlns="http://www.w3.org/2000/svg" xmlns:xlink="http://www.w3.org/1999/xlink" x="0px" y="0px"
	 viewBox="0 0 111 64" style="enable-background:new 0 0 111 64;" xml:space="preserve">
<style type="text/css">
	.st0{fill:#181818;}
</style>
<path class="st0" d="M30.8,20.2c0-2.1,0-4.2-3.1-4.2h-2.6c-3.1,0-3.1,2.1-3.1,4.2v1.9c0,1.3,1,2.3,2.3,2.3h4.1c1.3,0,2.3-1,2.3-2.3
	L30.8,20.2L30.8,20.2z"/>
<path class="st0" d="M47.9,6.4c0.2,0.2,0.4,0.5,0.6,0.8c0.6,0.9,1.8,1.1,2.6,0.5c0,0,0,0,0,0C51.4,7.4,52.5,7,52.9,7
	c1-0.1,1.1,0,2.5,0.8c0.9,0.5,2.5,1.2,3.8,1.2c0.1,0,0.2,0,0.2,0c0.1,0,0.1,0,0.2,0c1.8-0.2,3.4-1.4,4.9-3c0.6-0.6,0.7-1.5,0.3-2.3
	c-0.1-0.1-0.1-0.2-0.2-0.3c-0.2-0.3-0.4-0.7-0.6-1c-0.6-0.9-1.8-1.1-2.7-0.4c-1,0.8-1.8,1.3-2.6,1.2c-0.5,0-2.8-1.2-3.4-1.4
	c-1.1-0.4-1.7-0.8-2.9-0.8c-1.6,0-3,0.9-4.6,2.2c-0.8,0.6-0.9,1.7-0.4,2.6C47.6,5.9,47.8,6.2,47.9,6.4z"/>
<path class="st0" d="M55.9,20.2c-9.1,0-16.5,7.5-16.5,16.7c0,9.2,7.4,16.7,16.5,16.7s16.5-7.5,16.5-16.7
	C72.4,27.7,65,20.2,55.9,20.2z M55.9,52.8c-8.7,0-15.7-7.1-15.7-15.9c0-8.8,7.1-15.9,15.7-15.9s15.7,7.1,15.7,15.9
	C71.6,45.7,64.6,52.8,55.9,52.8z"/>
<path class="st0" d="M55.9,29.8c-3.9,0-7.1,3.2-7.1,7.1c0,3.9,3.2,7.1,7.1,7.1c3.9,0,7.1-3.2,7.1-7.1C62.9,33,59.8,29.8,55.9,29.8z
	 M55.9,43.3c-3.5,0-6.3-2.9-6.3-6.4c0-3.5,2.8-6.4,6.3-6.4s6.3,2.9,6.3,6.4C62.2,40.4,59.3,43.3,55.9,43.3z"/>
<path class="st0" d="M102.7,32.7c-2-1.7-2.4-2.5-2.4-4.2c0-1.7,1-2.1,2.2-2.1c1.5,0,3.3,0.6,4.1,0.6h0.4c1.7,0,1.9-1,1.9-1.6v-4.1
	c0-1.5-2.9-2.3-7.1-2.3c-2.5,0-5.8,0.3-8,2.8c-1.4-1.6-3.4-2.5-5.8-2.5H77c-0.5,0-0.8,0.1-1.2,0.1c-4.8-5.6-12-9.2-19.9-9.2
	c-14.6,0-26.4,11.9-26.4,26.7c0,4.5,1.1,8.7,3,12.3c-0.4,0-0.9,0-1.4,0c-1.6-0.1-1.6-1.7-1.6-3V27.5c0-0.8-0.3-1.4-0.8-1.9h-2
	c0,0-0.1,0-0.1,0h-2.9c-0.5,0-1-0.1-1.4-0.4l0,0c-0.7-0.4-1.2-1.1-1.3-1.9c0,0,0,0,0,0c0-0.1,0-0.2,0-0.3c0-0.1,0-0.1,0-0.2
	c0,0,0-0.1,0-0.1v-1.3c0-0.7,0-1.4,0.1-2.1c-0.1,0-0.1,0-0.2,0h-3c-2.6,0-2.8,1.9-4.4,6.1c-0.5,1.3-1.9,7.5-3.5,7.5
	c-0.3,0-0.3,0-0.3-9.4c0-2.1,0-4.2-3.1-4.2H4C1,19.3,1,21.4,1,23.5v29.1c0,2.1,0,4.2,3.1,4.2h2.6c3.1,0,3.1-2.1,3.1-4.2v-7.9
	c0-0.9-0.1-1.8-0.1-2.5c0-0.7,0.1-1.2,0.4-1.2c1.5,0,2.3,4.8,4.6,11.7c1.1,3.4,1.3,4.2,4.6,4.2h2.7c0.4,0,0.8,0,1.1-0.1
	c0.3,0.1,0.6,0.1,1,0.1h11.5c1.1,0,1.8-0.3,2.2-0.7c4.7,4.6,11.2,7.4,18.3,7.4c7.3,0,13.8-3,18.6-7.8c0.4,0.6,1.2,1,2.5,1h2.6
	c3.1,0,3.1-2.1,3.1-4.2v-7.8c0-0.5,0-0.9,1.3-0.9c0,0,0.6,0.1,1.9,0.1c2.9,0,7.7-0.5,9.3-4.1c0.1-0.3,0.3-0.7,0.4-1.2
	c0.8,0.9,1.7,1.8,2.8,2.9c3.1,3.2,3.2,4.1,3.2,5.3c0,1.6-1.9,2.8-3.4,2.8c-2.9,0-4-0.8-5.4-0.8c-1.4,0-1.9,0.6-1.9,1.3v4.1
	c0,2.1,3.7,2.9,7.4,2.9c1.6,0,3.5-0.2,4.9-0.6c1.1-0.3,3.8-1.3,5.5-4c1.3-2.1,1.4-4.3,1.4-6.7C110,41.6,108.8,37.9,102.7,32.7z
	 M20.8,44.8c-1.6-3.8-3.1-7.2-3.3-7.8c-0.4-0.8-0.6-1.1-0.6-1.3c0-0.2,2-4.1,3.9-7.7V44.8z M55.9,56.4c-10.6,0-19.3-8.7-19.3-19.4
	c0-10.7,8.6-19.4,19.3-19.4c10.6,0,19.3,8.7,19.3,19.4C75.1,47.6,66.5,56.4,55.9,56.4z M84.9,36.4c-2,0-2.3-0.3-2.3-2.1
	c0-0.6,0-1.6,0-2.6c0-1.1,0-2,0-2.7c0-1.9,0.3-2.6,2.3-2.6c2.3,0,2.8,2.9,2.8,5.3C87.7,34.1,87.6,36.4,84.9,36.4z"/>
</svg>
